# 3ds Max Wavefront OBJ Exporter v0.97b - (c)2007 guruware
# File Created: 17.08.2021 21:50:42

mtllib floor lamp 001.mtl

#
# object Cylinder001
#

v  7.5888 62.4044 -0.6207
v  7.1063 62.4044 -3.3568
v  7.1063 64.8044 -3.3568
v  7.5888 64.8044 -0.6207
v  5.7171 62.4044 -5.7630
v  5.7171 64.8044 -5.7630
v  3.5888 62.4044 -7.5489
v  3.5888 64.8044 -7.5489
v  0.9780 62.4044 -8.4991
v  0.9780 64.8044 -8.4991
v  -1.8004 62.4044 -8.4991
v  -1.8004 64.8044 -8.4991
v  -4.4112 62.4044 -7.5489
v  -4.4112 64.8044 -7.5489
v  -6.5396 62.4044 -5.7630
v  -6.5396 64.8044 -5.7630
v  -7.9288 62.4044 -3.3568
v  -7.9288 64.8044 -3.3568
v  -8.4112 62.4044 -0.6207
v  -8.4112 64.8044 -0.6207
v  -7.9288 62.4044 2.1155
v  -7.9288 64.8044 2.1155
v  -6.5396 62.4044 4.5216
v  -6.5396 64.8044 4.5216
v  -4.4112 62.4044 6.3075
v  -4.4112 64.8044 6.3075
v  -1.8004 62.4044 7.2578
v  -1.8004 64.8044 7.2578
v  0.9780 62.4044 7.2578
v  0.9780 64.8044 7.2578
v  3.5888 62.4044 6.3075
v  3.5888 64.8044 6.3075
v  5.7171 62.4044 4.5216
v  5.7171 64.8044 4.5216
v  7.1063 62.4044 2.1155
v  7.1063 64.8044 2.1155
v  7.1063 67.2044 -3.3568
v  7.5888 67.2044 -0.6207
v  5.7171 67.2044 -5.7630
v  3.5888 67.2044 -7.5489
v  0.9780 67.2044 -8.4991
v  -1.8004 67.2044 -8.4991
v  -4.4112 67.2044 -7.5489
v  -6.5396 67.2044 -5.7630
v  -7.9288 67.2044 -3.3568
v  -8.4112 67.2044 -0.6207
v  -7.9288 67.2044 2.1155
v  -6.5396 67.2044 4.5216
v  -4.4112 67.2044 6.3075
v  -1.8004 67.2044 7.2578
v  0.9780 67.2044 7.2578
v  3.5888 67.2044 6.3075
v  5.7171 67.2044 4.5216
v  7.1063 67.2044 2.1155
v  7.1063 69.6044 -3.3568
v  7.5888 69.6044 -0.6207
v  5.7171 69.6044 -5.7630
v  3.5888 69.6044 -7.5489
v  0.9780 69.6044 -8.4991
v  -1.8004 69.6044 -8.4991
v  -4.4112 69.6044 -7.5489
v  -6.5396 69.6044 -5.7630
v  -7.9288 69.6044 -3.3568
v  -8.4112 69.6044 -0.6207
v  -7.9288 69.6044 2.1155
v  -6.5396 69.6044 4.5216
v  -4.4112 69.6044 6.3075
v  -1.8004 69.6044 7.2578
v  0.9780 69.6044 7.2578
v  3.5888 69.6044 6.3075
v  5.7171 69.6044 4.5216
v  7.1063 69.6044 2.1155
v  7.1063 72.0044 -3.3568
v  7.5888 72.0044 -0.6207
v  5.7171 72.0044 -5.7630
v  3.5888 72.0044 -7.5489
v  0.9780 72.0044 -8.4991
v  -1.8004 72.0044 -8.4991
v  -4.4112 72.0044 -7.5489
v  -6.5396 72.0044 -5.7630
v  -7.9288 72.0044 -3.3568
v  -8.4112 72.0044 -0.6207
v  -7.9288 72.0044 2.1155
v  -6.5396 72.0044 4.5216
v  -4.4112 72.0044 6.3075
v  -1.8004 72.0044 7.2578
v  0.9780 72.0044 7.2578
v  3.5888 72.0044 6.3075
v  5.7171 72.0044 4.5216
v  7.1063 72.0044 2.1155
v  7.1063 74.4044 -3.3568
v  7.5888 74.4044 -0.6207
v  5.7171 74.4044 -5.7630
v  3.5888 74.4044 -7.5489
v  0.9780 74.4044 -8.4991
v  -1.8004 74.4044 -8.4991
v  -4.4112 74.4044 -7.5489
v  -6.5396 74.4044 -5.7630
v  -7.9288 74.4044 -3.3568
v  -8.4112 74.4044 -0.6207
v  -7.9288 74.4044 2.1155
v  -6.5396 74.4044 4.5216
v  -4.4112 74.4044 6.3075
v  -1.8004 74.4044 7.2578
v  0.9780 74.4044 7.2578
v  3.5888 74.4044 6.3075
v  5.7171 74.4044 4.5216
v  7.1063 74.4044 2.1155
# 108 vertices

vn 1.0000 0.0000 0.0000
vn 0.9397 0.0000 -0.3420
vn 0.7660 0.0000 -0.6428
vn 0.5000 0.0000 -0.8660
vn 0.1736 0.0000 -0.9848
vn -0.1736 0.0000 -0.9848
vn -0.5000 0.0000 -0.8660
vn -0.7660 0.0000 -0.6428
vn -0.9397 0.0000 -0.3420
vn -1.0000 0.0000 0.0000
vn -0.9397 0.0000 0.3420
vn -0.7660 0.0000 0.6428
vn -0.5000 0.0000 0.8660
vn -0.1736 0.0000 0.9848
vn 0.1736 0.0000 0.9848
vn 0.5000 0.0000 0.8660
vn 0.7660 0.0000 0.6428
vn 0.9397 0.0000 0.3420
# 18 vertex normals

vt 3.0000 -0.4487 4.0617
vt 3.2222 -0.4487 4.0617
vt 3.2222 0.1605 4.0617
vt 3.0000 0.1605 4.0617
vt 3.4444 -0.4487 4.0617
vt 3.4444 0.1605 4.0617
vt 3.6667 -0.4487 4.0617
vt 3.6667 0.1605 4.0617
vt 3.8889 -0.4487 4.0617
vt 3.8889 0.1605 4.0617
vt 4.1111 -0.4487 4.0617
vt 4.1111 0.1605 4.0617
vt 0.1111 -0.4487 4.0617
vt 0.3333 -0.4487 4.0617
vt 0.3333 0.1605 4.0617
vt 0.1111 0.1605 4.0617
vt 0.5556 -0.4487 4.0617
vt 0.5556 0.1605 4.0617
vt 0.7778 -0.4487 4.0617
vt 0.7778 0.1605 4.0617
vt 1.0000 -0.4487 4.0617
vt 1.0000 0.1605 4.0617
vt 1.2222 -0.4487 4.0617
vt 1.2222 0.1605 4.0617
vt 1.4444 -0.4487 4.0617
vt 1.4444 0.1605 4.0617
vt 1.6667 -0.4487 4.0617
vt 1.6667 0.1605 4.0617
vt 1.8889 -0.4487 4.0617
vt 1.8889 0.1605 4.0617
vt 2.1111 -0.4487 4.0617
vt 2.1111 0.1605 4.0617
vt 2.3333 -0.4487 4.0617
vt 2.3333 0.1605 4.0617
vt 2.5556 -0.4487 4.0617
vt 2.5556 0.1605 4.0617
vt 2.7778 -0.4487 4.0617
vt 2.7778 0.1605 4.0617
vt 3.2222 0.7698 4.0617
vt 3.0000 0.7698 4.0617
vt 3.4444 0.7698 4.0617
vt 3.6667 0.7698 4.0617
vt 3.8889 0.7698 4.0617
vt 4.1111 0.7698 4.0617
vt 0.3333 0.7698 4.0617
vt 0.1111 0.7698 4.0617
vt 0.5556 0.7698 4.0617
vt 0.7778 0.7698 4.0617
vt 1.0000 0.7698 4.0617
vt 1.2222 0.7698 4.0617
vt 1.4444 0.7698 4.0617
vt 1.6667 0.7698 4.0617
vt 1.8889 0.7698 4.0617
vt 2.1111 0.7698 4.0617
vt 2.3333 0.7698 4.0617
vt 2.5556 0.7698 4.0617
vt 2.7778 0.7698 4.0617
vt 3.2222 1.3790 4.0617
vt 3.0000 1.3790 4.0617
vt 3.4444 1.3790 4.0617
vt 3.6667 1.3790 4.0617
vt 3.8889 1.3790 4.0617
vt 4.1111 1.3790 4.0617
vt 0.3333 1.3790 4.0617
vt 0.1111 1.3790 4.0617
vt 0.5556 1.3790 4.0617
vt 0.7778 1.3790 4.0617
vt 1.0000 1.3790 4.0617
vt 1.2222 1.3790 4.0617
vt 1.4444 1.3790 4.0617
vt 1.6667 1.3790 4.0617
vt 1.8889 1.3790 4.0617
vt 2.1111 1.3790 4.0617
vt 2.3333 1.3790 4.0617
vt 2.5556 1.3790 4.0617
vt 2.7778 1.3790 4.0617
vt 3.2222 1.9883 4.0617
vt 3.0000 1.9883 4.0617
vt 3.4444 1.9883 4.0617
vt 3.6667 1.9883 4.0617
vt 3.8889 1.9883 4.0617
vt 4.1111 1.9883 4.0617
vt 0.3333 1.9883 4.0617
vt 0.1111 1.9883 4.0617
vt 0.5556 1.9883 4.0617
vt 0.7778 1.9883 4.0617
vt 1.0000 1.9883 4.0617
vt 1.2222 1.9883 4.0617
vt 1.4444 1.9883 4.0617
vt 1.6667 1.9883 4.0617
vt 1.8889 1.9883 4.0617
vt 2.1111 1.9883 4.0617
vt 2.3333 1.9883 4.0617
vt 2.5556 1.9883 4.0617
vt 2.7778 1.9883 4.0617
vt 3.2222 2.5975 4.0617
vt 3.0000 2.5975 4.0617
vt 3.4444 2.5975 4.0617
vt 3.6667 2.5975 4.0617
vt 3.8889 2.5975 4.0617
vt 4.1111 2.5975 4.0617
vt 0.3333 2.5975 4.0617
vt 0.1111 2.5975 4.0617
vt 0.5556 2.5975 4.0617
vt 0.7778 2.5975 4.0617
vt 1.0000 2.5975 4.0617
vt 1.2222 2.5975 4.0617
vt 1.4444 2.5975 4.0617
vt 1.6667 2.5975 4.0617
vt 1.8889 2.5975 4.0617
vt 2.1111 2.5975 4.0617
vt 2.3333 2.5975 4.0617
vt 2.5556 2.5975 4.0617
vt 2.7778 2.5975 4.0617
# 114 texture coords

o Cylinder001
g Cylinder001
usemtl wire_000000000
s 8
f 1/1/1 2/2/2 3/3/2 4/4/1 
f 2/2/2 5/5/3 6/6/3 3/3/2 
f 5/5/3 7/7/4 8/8/4 6/6/3 
f 7/7/4 9/9/5 10/10/5 8/8/4 
f 9/9/5 11/11/6 12/12/6 10/10/5 
f 11/13/6 13/14/7 14/15/7 12/16/6 
f 13/14/7 15/17/8 16/18/8 14/15/7 
f 15/17/8 17/19/9 18/20/9 16/18/8 
f 17/19/9 19/21/10 20/22/10 18/20/9 
f 19/21/10 21/23/11 22/24/11 20/22/10 
f 21/23/11 23/25/12 24/26/12 22/24/11 
f 23/25/12 25/27/13 26/28/13 24/26/12 
f 25/27/13 27/29/14 28/30/14 26/28/13 
f 27/29/14 29/31/15 30/32/15 28/30/14 
f 29/31/15 31/33/16 32/34/16 30/32/15 
f 31/33/16 33/35/17 34/36/17 32/34/16 
f 33/35/17 35/37/18 36/38/18 34/36/17 
f 35/37/18 1/1/1 4/4/1 36/38/18 
f 4/4/1 3/3/2 37/39/2 38/40/1 
f 3/3/2 6/6/3 39/41/3 37/39/2 
f 6/6/3 8/8/4 40/42/4 39/41/3 
f 8/8/4 10/10/5 41/43/5 40/42/4 
f 10/10/5 12/12/6 42/44/6 41/43/5 
f 12/16/6 14/15/7 43/45/7 42/46/6 
f 14/15/7 16/18/8 44/47/8 43/45/7 
f 16/18/8 18/20/9 45/48/9 44/47/8 
f 18/20/9 20/22/10 46/49/10 45/48/9 
f 20/22/10 22/24/11 47/50/11 46/49/10 
f 22/24/11 24/26/12 48/51/12 47/50/11 
f 24/26/12 26/28/13 49/52/13 48/51/12 
f 26/28/13 28/30/14 50/53/14 49/52/13 
f 28/30/14 30/32/15 51/54/15 50/53/14 
f 30/32/15 32/34/16 52/55/16 51/54/15 
f 32/34/16 34/36/17 53/56/17 52/55/16 
f 34/36/17 36/38/18 54/57/18 53/56/17 
f 36/38/18 4/4/1 38/40/1 54/57/18 
f 38/40/1 37/39/2 55/58/2 56/59/1 
f 37/39/2 39/41/3 57/60/3 55/58/2 
f 39/41/3 40/42/4 58/61/4 57/60/3 
f 40/42/4 41/43/5 59/62/5 58/61/4 
f 41/43/5 42/44/6 60/63/6 59/62/5 
f 42/46/6 43/45/7 61/64/7 60/65/6 
f 43/45/7 44/47/8 62/66/8 61/64/7 
f 44/47/8 45/48/9 63/67/9 62/66/8 
f 45/48/9 46/49/10 64/68/10 63/67/9 
f 46/49/10 47/50/11 65/69/11 64/68/10 
f 47/50/11 48/51/12 66/70/12 65/69/11 
f 48/51/12 49/52/13 67/71/13 66/70/12 
f 49/52/13 50/53/14 68/72/14 67/71/13 
f 50/53/14 51/54/15 69/73/15 68/72/14 
f 51/54/15 52/55/16 70/74/16 69/73/15 
f 52/55/16 53/56/17 71/75/17 70/74/16 
f 53/56/17 54/57/18 72/76/18 71/75/17 
f 54/57/18 38/40/1 56/59/1 72/76/18 
f 56/59/1 55/58/2 73/77/2 74/78/1 
f 55/58/2 57/60/3 75/79/3 73/77/2 
f 57/60/3 58/61/4 76/80/4 75/79/3 
f 58/61/4 59/62/5 77/81/5 76/80/4 
f 59/62/5 60/63/6 78/82/6 77/81/5 
f 60/65/6 61/64/7 79/83/7 78/84/6 
f 61/64/7 62/66/8 80/85/8 79/83/7 
f 62/66/8 63/67/9 81/86/9 80/85/8 
f 63/67/9 64/68/10 82/87/10 81/86/9 
f 64/68/10 65/69/11 83/88/11 82/87/10 
f 65/69/11 66/70/12 84/89/12 83/88/11 
f 66/70/12 67/71/13 85/90/13 84/89/12 
f 67/71/13 68/72/14 86/91/14 85/90/13 
f 68/72/14 69/73/15 87/92/15 86/91/14 
f 69/73/15 70/74/16 88/93/16 87/92/15 
f 70/74/16 71/75/17 89/94/17 88/93/16 
f 71/75/17 72/76/18 90/95/18 89/94/17 
f 72/76/18 56/59/1 74/78/1 90/95/18 
f 74/78/1 73/77/2 91/96/2 92/97/1 
f 73/77/2 75/79/3 93/98/3 91/96/2 
f 75/79/3 76/80/4 94/99/4 93/98/3 
f 76/80/4 77/81/5 95/100/5 94/99/4 
f 77/81/5 78/82/6 96/101/6 95/100/5 
f 78/84/6 79/83/7 97/102/7 96/103/6 
f 79/83/7 80/85/8 98/104/8 97/102/7 
f 80/85/8 81/86/9 99/105/9 98/104/8 
f 81/86/9 82/87/10 100/106/10 99/105/9 
f 82/87/10 83/88/11 101/107/11 100/106/10 
f 83/88/11 84/89/12 102/108/12 101/107/11 
f 84/89/12 85/90/13 103/109/13 102/108/12 
f 85/90/13 86/91/14 104/110/14 103/109/13 
f 86/91/14 87/92/15 105/111/15 104/110/14 
f 87/92/15 88/93/16 106/112/16 105/111/15 
f 88/93/16 89/94/17 107/113/17 106/112/16 
f 89/94/17 90/95/18 108/114/18 107/113/17 
f 90/95/18 74/78/1 92/97/1 108/114/18 
# 90 polygons

#
# object Line001
#

v  -3.4112 59.6044 -1.1207
v  -6.4112 -0.3956 -1.1207
v  -6.4112 -0.3956 -0.1207
v  -3.4112 59.6044 -0.1207
v  5.5888 -0.3956 -1.1207
v  5.5888 -0.3956 -0.1207
v  2.5888 59.6044 -1.1207
v  2.5888 59.6044 -0.1207
v  -5.3600 0.6044 -0.1207
v  -5.3600 0.6044 -1.1207
v  -2.4600 58.6044 -1.1207
v  -2.4600 58.6044 -0.1207
v  4.5375 0.6044 -0.1207
v  4.5375 0.6044 -1.1207
v  1.6375 58.6044 -0.1207
v  1.6375 58.6044 -1.1207
# 16 vertices

vn -0.5614 0.5902 -0.5800
vn -0.5929 -0.5640 -0.5748
vn -0.5929 -0.5640 0.5748
vn -0.5614 0.5902 0.5800
vn 0.5929 -0.5640 -0.5748
vn 0.5929 -0.5640 0.5748
vn 0.5614 0.5902 -0.5800
vn 0.5614 0.5902 0.5800
vn 0.2999 0.2853 0.9103
vn 0.2999 0.2853 -0.9103
vn 0.3024 -0.3179 -0.8986
vn 0.3024 -0.3179 0.8986
vn -0.2999 0.2853 0.9103
vn -0.2999 0.2853 -0.9103
vn -0.3024 -0.3179 0.8986
vn -0.3024 -0.3179 -0.8986
# 16 vertex normals

o Line001
g Line001
usemtl wire_000000000
s 1
f 109//19 110//20 111//21 112//22 
s 4
f 110//20 113//23 114//24 111//21 
s 2
f 113//23 115//25 116//26 114//24 
s 4
f 115//25 109//19 112//22 116//26 
s 1
f 117//27 118//28 119//29 120//30 
s 4
f 121//31 122//32 118//28 117//27 
s 2
f 123//33 124//34 122//32 121//31 
s 4
f 120//30 119//29 124//34 123//33 
s 8
f 110//20 109//19 119//29 118//28 
f 112//22 111//21 117//27 120//30 
f 113//23 110//20 118//28 122//32 
f 111//21 114//24 121//31 117//27 
f 115//25 113//23 122//32 124//34 
f 114//24 116//26 123//33 121//31 
f 109//19 115//25 124//34 119//29 
f 116//26 112//22 120//30 123//33 
# 16 polygons

#
# object Line002
#

v  0.0888 59.6044 -3.6207
v  0.0888 -0.3956 -6.6207
v  -0.9112 -0.3956 -6.6207
v  -0.9112 59.6044 -3.6207
v  0.0888 -0.3956 5.3793
v  -0.9112 -0.3956 5.3793
v  0.0888 59.6044 2.3793
v  -0.9112 59.6044 2.3793
v  -0.9112 0.6044 -5.5694
v  0.0888 0.6044 -5.5694
v  0.0888 58.6044 -2.6694
v  -0.9112 58.6044 -2.6694
v  -0.9112 0.6044 4.3281
v  0.0888 0.6044 4.3281
v  -0.9112 58.6044 1.4281
v  0.0888 58.6044 1.4281
# 16 vertices

vn 0.5800 0.5902 -0.5614
vn 0.5748 -0.5640 -0.5929
vn -0.5748 -0.5640 -0.5929
vn -0.5800 0.5902 -0.5614
vn 0.5748 -0.5640 0.5929
vn -0.5748 -0.5640 0.5929
vn 0.5800 0.5902 0.5614
vn -0.5800 0.5902 0.5614
vn -0.9103 0.2853 0.2999
vn 0.9103 0.2853 0.2999
vn 0.8986 -0.3179 0.3024
vn -0.8986 -0.3179 0.3024
vn -0.9103 0.2853 -0.2999
vn 0.9103 0.2853 -0.2999
vn -0.8986 -0.3179 -0.3024
vn 0.8986 -0.3179 -0.3024
# 16 vertex normals

o Line002
g Line002
usemtl wire_000000000
s 1
f 125//35 126//36 127//37 128//38 
s 4
f 126//36 129//39 130//40 127//37 
s 2
f 129//39 131//41 132//42 130//40 
s 4
f 131//41 125//35 128//38 132//42 
s 1
f 133//43 134//44 135//45 136//46 
s 4
f 137//47 138//48 134//44 133//43 
s 2
f 139//49 140//50 138//48 137//47 
s 4
f 136//46 135//45 140//50 139//49 
s 8
f 126//36 125//35 135//45 134//44 
f 128//38 127//37 133//43 136//46 
f 129//39 126//36 134//44 138//48 
f 127//37 130//40 137//47 133//43 
f 131//41 129//39 138//48 140//50 
f 130//40 132//42 139//49 137//47 
f 125//35 131//41 140//50 135//45 
f 132//42 128//38 136//46 139//49 
# 16 polygons

#
# object Box001
#

v  -0.9112 59.6044 -0.1207
v  -0.9112 59.6044 -1.1207
v  0.0888 59.6044 -1.1207
v  0.0888 59.6044 -0.1207
v  -0.9112 69.6044 -0.1207
v  0.0888 69.6044 -0.1207
v  0.0888 69.6044 -1.1207
v  -0.9112 69.6044 -1.1207
# 8 vertices

vn -0.5774 -0.5774 0.5774
vn -0.5774 -0.5774 -0.5774
vn 0.5774 -0.5774 -0.5774
vn 0.5774 -0.5774 0.5774
vn -0.5774 0.5774 0.5774
vn 0.5774 0.5774 0.5774
vn 0.5774 0.5774 -0.5774
vn -0.5774 0.5774 -0.5774
# 8 vertex normals

vt 1.0000 0.0000 0.0000
vt 1.0000 1.0000 0.0000
vt 0.0000 1.0000 0.0000
vt 0.0000 0.0000 0.0000
# 4 texture coords

o Box001
g Box001
usemtl wire_000000000
s 2
f 141/115/51 142/116/52 143/117/53 144/118/54 
s 4
f 145/118/55 146/115/56 147/116/57 148/117/58 
s 8
f 141/118/51 144/115/54 146/116/56 145/117/55 
s 16
f 144/118/54 143/115/53 147/116/57 146/117/56 
s 32
f 143/118/53 142/115/52 148/116/58 147/117/57 
s 64
f 142/118/52 141/115/51 145/116/55 148/117/58 
# 6 polygons

